<svg width="574" height="717" viewBox="0 0 574 717" fill="none" xmlns="http://www.w3.org/2000/svg">
<g opacity="0.6" clip-path="url(#clip0_931_398)">
<path d="M362.042 255.378C412.555 289.183 429.895 322.143 412.176 350.713C403.397 364.862 389.588 381.676 373.596 381.412C362.809 381.236 352.717 373.115 343.602 357.277C333.149 339.107 320.477 326.481 309.293 315.35C294.349 300.472 282.548 288.716 285.243 271.453C287.903 254.41 294.393 243.508 304.546 239.065C313.59 235.105 325.461 236.39 339.974 242.883C346.755 245.919 354.117 250.089 362.034 255.386L362.042 255.378ZM344.368 356.837C353.315 372.385 363.152 380.356 373.614 380.532C390.002 380.805 404.339 361.676 411.428 350.247C428.847 322.152 411.604 289.596 361.549 256.108C336.945 239.645 317.888 234.181 304.907 239.865C295.053 244.185 288.73 254.85 286.124 271.576C283.5 288.4 295.159 300.014 309.927 314.717C321.146 325.892 333.871 338.562 344.377 356.828L343.998 357.048L344.377 356.828L344.368 356.837Z" fill="url(#paint0_linear_931_398)"/>
<path d="M368.312 254.867C418.42 295.28 433.76 330.572 412.687 356.934C402.419 369.78 386.709 384.694 370.153 382.811C358.599 381.5 348.516 372.033 340.177 354.681L340.573 354.488L340.177 354.681C330.771 335.113 318.557 320.815 307.778 308.206C293.38 291.356 282.011 278.052 286.335 261.088C290.456 244.889 297.863 234.911 308.342 231.427C316.4 228.744 326.201 229.984 337.658 235.114C346.834 239.214 357.067 245.813 368.312 254.885V254.867ZM370.25 381.931C386.401 383.77 401.864 369.05 412 356.379C432.721 330.467 417.416 295.597 367.758 255.545C342.73 235.36 322.837 227.52 308.624 232.245C298.444 235.633 291.24 245.4 287.189 261.29C282.98 277.815 294.226 290.969 308.456 307.625C319.27 320.278 331.529 334.62 340.978 354.294C347.398 367.651 354.821 376.247 363.134 379.969C365.442 380.999 367.819 381.659 370.259 381.931H370.25Z" fill="url(#paint1_linear_931_398)"/>
<path d="M374.944 255.158C407.835 286.631 424.558 313.652 424.637 335.465C424.681 346.146 420.657 355.491 412.687 363.234C400.94 374.646 383.345 387.475 366.269 383.788C354.064 381.148 344.148 370.334 336.813 351.628L337.226 351.47L336.813 351.628C328.632 330.792 317.043 314.875 306.818 300.832C293.16 282.082 282.372 267.274 288.378 250.811C293.926 235.615 302.195 226.641 312.965 224.133C320.116 222.47 328.315 223.702 337.499 227.811C348.578 232.765 361.083 241.889 374.935 255.149L374.944 255.158ZM337.632 351.303C344.853 369.71 354.557 380.348 366.454 382.917C383.151 386.524 400.482 373.854 412.071 362.591C419.864 355.024 423.792 345.891 423.757 335.456C423.677 313.89 407.051 287.089 374.336 255.782C349.221 231.753 328.64 221.388 313.168 224.986C302.706 227.424 294.639 236.205 289.206 251.11C283.359 267.133 294.023 281.774 307.523 300.313C317.782 314.391 329.407 330.361 337.632 351.303V351.303Z" fill="url(#paint2_linear_931_398)"/>
<path d="M381.874 256.31C414.087 292.57 429.278 322.09 427.024 344.044C425.958 354.4 420.956 362.987 412.141 369.551C398.905 379.406 379.452 389.965 361.91 384.245C349.212 380.11 339.666 367.959 333.545 348.144C326.765 326.191 315.968 308.743 306.44 293.336C293.724 272.773 283.676 256.53 291.416 240.798C298.329 226.737 307.435 218.845 318.478 217.349C324.757 216.496 331.617 217.736 339.032 221.053C351.739 226.737 366.076 238.519 381.883 256.31H381.874ZM362.183 383.41C379.364 389.014 398.553 378.579 411.622 368.847C420.225 362.433 425.113 354.065 426.152 343.956C428.38 322.249 413.26 292.957 381.222 256.891C356.406 228.955 335.333 215.941 318.601 218.211C307.866 219.663 298.99 227.388 292.209 241.176C284.688 256.477 294.622 272.535 307.197 292.869C316.752 308.311 327.575 325.821 334.391 347.88C339.939 365.829 348.278 377.374 359.224 382.266C360.193 382.697 361.179 383.084 362.192 383.41H362.183Z" fill="url(#paint3_linear_931_398)"/>
<path d="M389.051 258.352C419.996 299.213 433.347 330.951 428.75 352.693C426.636 362.688 420.674 370.466 411.023 375.816C396.281 383.99 374.952 392.05 357.049 384.061H357.023C344.078 378.262 335.122 364.862 330.41 344.219C325.188 321.334 315.361 302.434 306.695 285.769C295.124 263.508 285.983 245.928 295.467 231.137C303.701 218.308 313.608 211.577 324.907 211.137C330.296 210.926 335.967 212.158 341.911 214.815C356.151 221.185 371.932 235.747 389.051 258.352V258.352ZM357.41 383.26C374.988 391.1 396.035 383.128 410.6 375.051C420.014 369.833 425.835 362.248 427.896 352.517C432.44 331.03 419.133 299.53 388.355 258.888C371.315 236.39 355.658 221.916 341.577 215.624C335.756 213.02 330.208 211.815 324.942 212.017C313.943 212.448 304.273 219.038 296.207 231.612C286.996 245.972 296.031 263.358 307.47 285.364C316.162 302.082 326.016 321.035 331.265 344.026C335.914 364.386 344.694 377.576 357.375 383.251H357.402L357.41 383.26Z" fill="url(#paint4_linear_931_398)"/>
<path d="M396.404 261.326C425.483 306.481 436.728 340.119 429.842 361.316C426.715 370.933 419.803 377.875 409.306 381.958C393.023 388.284 369.801 393.616 351.695 383.102C338.759 375.587 330.604 361.052 327.46 339.882C323.955 316.257 315.272 296.046 307.62 278.211C297.396 254.392 289.312 235.58 300.566 221.968C310.077 210.459 320.768 204.969 332.33 205.655C336.76 205.919 341.295 207.09 345.936 209.166C361.69 216.214 378.616 233.68 396.413 261.326H396.404ZM328.323 339.75C331.423 360.638 339.437 374.963 352.127 382.336C369.942 392.683 392.873 387.387 408.98 381.131C419.221 377.154 425.949 370.396 428.996 361.043C435.804 340.11 424.584 306.728 395.656 261.801C372.768 226.262 351.44 207.67 332.26 206.535C320.988 205.866 310.543 211.251 301.226 222.523C290.324 235.721 298.303 254.313 308.412 277.859C316.091 295.747 324.792 316.01 328.315 339.75L327.883 339.811L328.315 339.75H328.323Z" fill="url(#paint5_linear_931_398)"/>
<path d="M403.872 265.259C430.493 314.295 439.396 349.481 430.317 369.842C426.196 379.08 418.35 385.152 406.972 387.888C389.104 392.182 363.997 394.505 345.892 381.219C333.299 371.971 326.175 356.476 324.73 335.157C323.092 311.021 315.73 289.631 309.231 270.758C300.557 245.549 293.697 225.646 306.695 213.442C317.465 203.332 328.922 199.171 340.749 201.08C344.113 201.625 347.503 202.655 350.903 204.177C368.26 211.938 386.031 232.421 403.863 265.276L403.872 265.259ZM406.769 387.026C417.865 384.36 425.518 378.456 429.516 369.481C438.472 349.384 429.586 314.453 403.097 265.681C381.901 226.649 360.88 205.198 340.608 201.942C329.063 200.086 317.853 204.168 307.294 214.076C294.71 225.893 301.482 245.558 310.059 270.468C316.576 289.394 323.964 310.837 325.602 335.095C327.029 356.142 334.03 371.425 346.403 380.506C349.08 382.468 351.906 384.087 354.857 385.407C371.527 392.868 391.728 390.651 406.761 387.035L406.769 387.026Z" fill="url(#paint6_linear_931_398)"/>
<path d="M411.366 270.16C434.985 322.557 441.325 358.914 430.212 378.218C425.104 387.087 416.289 392.235 404.013 393.519C384.525 395.552 357.56 394.558 339.754 378.28C327.839 367.387 321.956 351.162 322.282 330.045C322.652 305.637 316.77 283.235 311.574 263.472C304.643 237.076 299.166 216.223 313.872 205.655C325.893 197.024 338.125 194.287 350.224 197.534C352.382 198.115 354.531 198.88 356.679 199.839C375.798 208.392 394.159 231.99 411.357 270.151L411.366 270.16ZM323.163 330.062C322.846 350.915 328.632 366.92 340.353 377.637C358.846 394.54 388.127 394.302 403.925 392.648C415.91 391.399 424.496 386.401 429.454 377.787C440.418 358.738 434.06 322.645 410.565 270.529C391.552 228.348 371.175 204.08 350.004 198.405C338.169 195.229 326.192 197.921 314.392 206.386C300.17 216.601 305.577 237.19 312.428 263.261C317.633 283.076 323.533 305.54 323.163 330.071V330.062Z" fill="url(#paint7_linear_931_398)"/>
<path d="M418.808 276.046C438.921 331.206 442.532 368.346 429.542 386.436C423.431 394.945 413.638 399.107 400.429 398.799C383.151 398.394 351.457 394.672 333.422 374.241C322.511 361.888 318.046 345.187 320.151 324.616C322.652 300.19 318.408 276.97 314.674 256.486C309.681 229.113 305.727 207.494 322.097 198.801C335.404 191.736 348.419 190.557 360.774 195.29C361.558 195.589 362.342 195.915 363.117 196.258C384.225 205.699 402.947 232.509 418.816 276.028L418.808 276.046ZM321.023 324.712C318.945 345.029 323.339 361.5 334.083 373.66C351.898 393.845 383.31 397.523 400.455 397.919C413.356 398.218 422.902 394.179 428.838 385.917C441.642 368.082 437.996 331.215 417.989 276.336C402.208 233.046 383.644 206.403 362.765 197.068C361.998 196.725 361.232 196.408 360.466 196.109C348.349 191.463 335.58 192.633 322.511 199.575C306.713 207.969 310.605 229.307 315.537 256.328C319.288 276.864 323.542 300.146 321.023 324.704L320.583 324.66L321.023 324.704V324.712Z" fill="url(#paint8_linear_931_398)"/>
<path d="M372.346 194.551C394.696 205.937 412.784 235.659 426.117 282.909C442.285 340.181 443.025 377.717 428.318 394.452C421.168 402.6 410.362 405.688 396.211 403.629C377.621 400.928 343.919 392.842 327.064 369.067C317.439 355.5 314.515 338.615 318.381 318.905L318.813 318.993L318.381 318.905C323.119 294.744 320.671 270.916 318.522 249.896C315.642 221.801 313.37 199.602 331.317 192.994C345.055 187.934 358.071 188.093 370.039 193.443C370.813 193.786 371.588 194.155 372.355 194.551H372.346ZM396.343 402.758C410.177 404.773 420.718 401.781 427.667 393.871C442.162 377.365 441.36 340.11 425.28 283.147C412.018 236.143 394.071 206.606 371.949 195.334C359.577 189.026 346.006 188.524 331.617 193.821C314.313 200.191 316.558 222.083 319.394 249.808C321.551 270.89 324.008 294.779 319.244 319.072C315.431 338.535 318.302 355.192 327.786 368.557C335.492 379.424 346.781 386.973 358.511 392.226C372.161 398.332 386.418 401.315 396.334 402.758H396.343Z" fill="url(#paint9_linear_931_398)"/>
<path d="M384.868 195.519C407.095 209.967 423.352 241.995 433.197 290.74C445.05 349.437 442.805 386.955 426.531 402.265C418.279 410.026 406.452 411.935 391.367 407.932C371.544 402.679 336.029 389.824 320.882 362.794C312.763 348.302 311.459 331.532 317.016 312.94C324.079 289.323 323.568 265.127 323.128 243.772C322.538 215.22 322.062 192.668 341.489 188.366C354.407 185.497 366.402 186.509 377.268 191.375C379.866 192.536 382.402 193.918 384.868 195.528V195.519ZM391.596 407.078C406.364 410.994 417.909 409.155 425.932 401.623C441.968 386.542 444.125 349.288 432.334 290.916C422.541 242.417 406.408 210.574 384.393 196.267C371.826 188.102 357.454 185.735 341.682 189.237C322.969 193.39 323.427 215.624 324.017 243.772C324.466 265.188 324.968 289.464 317.87 313.204C312.384 331.558 313.661 348.1 321.657 362.371C331.027 379.089 348.322 390.334 364.781 397.699C374.653 402.116 384.225 405.134 391.605 407.087L391.596 407.078Z" fill="url(#paint10_linear_931_398)"/>
<path d="M439.951 299.495C447.199 358.896 441.889 396.009 424.17 409.815C414.757 417.153 401.882 417.751 385.916 411.61C364.993 403.559 327.945 385.565 315.061 355.517C308.588 340.427 308.941 324.026 316.1 306.78L316.505 306.948L316.1 306.78C325.549 284.018 327.117 259.689 328.499 238.229C330.349 209.518 331.802 186.835 352.567 185.031C362.809 184.142 373.896 185.189 384.701 190.02C408.848 200.825 431.541 230.503 439.951 299.495ZM386.242 410.791C401.899 416.819 414.484 416.256 423.633 409.12C441.087 395.517 446.283 358.676 439.079 299.601C430.705 230.987 408.222 201.529 384.305 190.829C373.667 186.069 362.738 185.031 352.646 185.902C332.638 187.644 331.203 209.993 329.38 238.281C327.997 259.812 326.43 284.22 316.919 307.115C309.848 324.14 309.496 340.304 315.88 355.174C326.685 380.356 354.716 397.021 375.683 406.401C379.488 408.099 383.054 409.56 386.251 410.791H386.242Z" fill="url(#paint11_linear_931_398)"/>
<path d="M446.283 309.147C448.714 368.54 440.277 404.852 421.229 417.092C410.574 423.937 396.669 423.101 379.893 414.601C358.036 403.533 319.869 380.084 309.777 347.396C305.022 332.007 307.012 316.222 315.686 300.48C327.575 278.888 331.326 254.7 334.629 233.363C339.049 204.811 342.545 182.25 364.491 183.122C373.402 183.473 382.79 185.224 391.922 189.307C418.702 201.282 443.192 233.354 446.292 309.156L446.283 309.147ZM310.614 347.141C320.609 379.512 358.555 402.811 380.289 413.818C396.757 422.16 410.371 423.013 420.754 416.352C439.529 404.298 447.815 368.24 445.402 309.183C441.272 208.198 399.099 185.365 364.447 183.993C343.285 183.157 339.842 205.365 335.483 233.495C332.163 254.911 328.411 279.178 316.444 300.903C307.893 316.433 305.929 331.989 310.605 347.141H310.614Z" fill="url(#paint12_linear_931_398)"/>
<path d="M452.104 319.653C449.568 378.333 437.988 413.458 417.68 424.06C405.695 430.316 390.768 427.888 373.314 416.836C350.779 402.573 311.97 373.44 305.145 338.641C302.125 323.234 305.709 308.25 315.783 294.128C330.129 274.013 336.152 250.257 341.471 229.289C348.587 201.221 354.205 179.056 377.163 182.761C384.234 183.905 391.517 185.884 398.659 189.078C428.53 202.435 455.679 236.988 452.104 319.671V319.653ZM316.497 294.629C306.563 308.549 303.032 323.305 306.008 338.465C312.763 372.939 351.369 401.896 373.781 416.088C390.945 426.955 405.581 429.375 417.275 423.277C437.283 412.833 448.705 377.954 451.232 319.618C455.635 217.824 413.312 189.474 377.022 183.614C354.865 180.042 349.326 201.863 342.325 229.491C336.989 250.529 330.948 274.383 316.497 294.629V294.629Z" fill="url(#paint13_linear_931_398)"/>
<path d="M457.3 330.933C449.717 388.222 434.976 421.764 413.48 430.65C400.068 436.194 384.164 432.005 366.199 418.209C343.294 400.62 304.406 365.697 301.244 329.393C299.923 314.18 305.031 300.164 316.435 287.74C333.237 269.429 341.612 246.385 349.009 226.06C358.907 198.836 366.727 177.332 390.487 184.01C395.119 185.312 399.812 186.958 404.462 189.043C437.935 204.019 469.153 241.273 457.3 330.942V330.933ZM413.145 429.832C434.333 421.077 448.89 387.765 456.428 330.81C468.219 241.66 437.257 204.661 404.075 189.817C399.478 187.758 394.828 186.131 390.258 184.846C367.282 178.396 359.586 199.558 349.846 226.35C342.422 246.763 334.012 269.896 317.095 288.329C305.867 300.568 300.83 314.356 302.134 329.314C305.26 365.284 343.963 400.013 366.745 417.505C372.654 422.045 378.325 425.53 383.759 427.949C394.59 432.789 404.427 433.431 413.154 429.823L413.145 429.832Z" fill="url(#paint14_linear_931_398)"/>
<path d="M461.782 342.917C449.145 398.165 431.26 429.762 408.619 436.827C393.71 441.482 376.89 435.375 358.626 418.684C335.703 397.734 297.369 357.039 298.127 319.899C298.435 305.038 305.004 292.095 317.677 281.431C336.892 265.25 347.688 243.226 357.199 223.799C369.942 197.78 380.016 177.235 404.356 186.984C405.818 187.565 407.28 188.19 408.742 188.841C446.274 205.629 483.921 246.042 461.773 342.917H461.782ZM408.355 435.983C430.678 429.023 448.361 397.646 460.919 342.724C483.798 242.681 442.628 203.244 404.039 187.802C380.456 178.353 370.54 198.581 358 224.186C348.446 243.693 337.614 265.804 318.249 282.1C305.779 292.597 299.307 305.32 299.016 319.917C298.268 356.705 336.416 397.18 359.224 418.033C366.992 425.134 374.477 430.29 381.654 433.501C391.13 437.734 400.059 438.578 408.355 435.991V435.983Z" fill="url(#paint15_linear_931_398)"/>
<path d="M418.675 191.771C458.154 212.413 498.31 257.577 465.445 355.517C447.789 408.134 426.795 437.408 403.044 442.511C386.559 446.057 368.92 437.874 350.638 418.174C328.094 393.898 291.002 347.589 295.793 310.309C297.642 295.905 305.63 284.115 319.535 275.263C341.11 261.528 354.337 240.842 366.014 222.593C381.09 199.021 393.111 180.235 416.104 190.513C416.949 190.891 417.812 191.304 418.684 191.762L418.675 191.771ZM296.665 310.423C291.918 347.352 328.843 393.414 351.281 417.575C369.343 437.03 386.7 445.133 402.859 441.649C426.284 436.607 447.058 407.536 464.609 355.227C497.28 257.876 457.44 213.02 418.27 192.536C394.273 180.007 382.138 199.003 366.754 223.051C355.033 241.379 341.744 262.144 320.01 275.993C306.343 284.695 298.488 296.275 296.674 310.406L296.665 310.423Z" fill="url(#paint16_linear_931_398)"/>
<path d="M433.285 198.414C472.939 224.203 511.185 274.673 468.211 368.627C445.596 418.068 421.537 444.649 396.713 447.641C378.607 449.823 360.299 439.397 342.299 416.643C320.556 389.155 285.393 337.559 294.199 300.762C297.528 286.877 306.88 276.301 322.009 269.324C345.848 258.334 361.523 239.311 375.357 222.523C392.23 202.048 405.871 185.488 426.9 194.894C428.952 195.809 431.075 196.98 433.276 198.405L433.285 198.414ZM295.053 300.973C286.326 337.409 321.34 388.742 342.986 416.097C360.783 438.596 378.827 448.917 396.607 446.77C421.106 443.814 444.927 417.399 467.409 368.258C510.128 274.876 472.173 224.749 432.809 199.144C408.689 183.456 394.282 200.939 376.044 223.077C362.148 239.936 346.403 259.047 322.379 270.116C307.505 276.97 298.312 287.353 295.053 300.964V300.973Z" fill="url(#paint17_linear_931_398)"/>
<path d="M448.035 206.958C487.435 237.938 523.214 293.477 469.963 382.125C442.47 427.888 415.417 451.433 389.544 452.102C369.818 452.612 351.026 439.801 333.66 414.021C313.133 383.55 280.593 327.088 293.283 291.356C298.021 277.999 308.738 268.69 325.118 263.684C351.096 255.747 369.202 238.695 385.176 223.649C403.59 206.315 418.667 192.114 438.199 200.851C441.352 202.259 444.619 204.265 448.027 206.949L448.035 206.958ZM389.527 451.222C415.074 450.562 441.88 427.157 469.206 381.676C522.131 293.573 486.607 238.405 447.489 207.653C444.187 205.057 441.017 203.112 437.961 201.74C418.825 193.187 403.951 207.195 385.784 224.3C369.739 239.408 351.554 256.539 325.373 264.528C309.275 269.447 298.752 278.571 294.111 291.655C281.553 327.027 313.96 383.198 334.391 413.537C345.751 430.404 357.71 441.658 370.109 447.21C376.467 450.052 382.94 451.398 389.518 451.231L389.527 451.222Z" fill="url(#paint18_linear_931_398)"/>
<path d="M462.786 217.419C501.472 253.565 534.231 313.872 470.65 395.886C438.366 437.531 408.372 457.672 381.495 455.771C360.237 454.267 341.172 438.957 324.836 410.281C305.947 377.11 276.683 316.354 293.019 282.144C299.148 269.315 311.204 261.334 328.869 258.431C356.838 253.829 377.321 239.073 395.392 226.051C415.047 211.894 431.348 200.147 449.717 208.365C453.944 210.257 458.277 213.196 462.786 217.411V217.419ZM381.557 454.891C408.117 456.774 437.855 436.739 469.954 395.35C533.13 313.863 500.6 253.961 462.187 218.062C438.595 196.012 419.767 209.588 395.911 226.773C377.762 239.848 357.19 254.665 329.019 259.302C311.653 262.161 299.809 269.975 293.82 282.531C277.661 316.38 306.801 376.837 325.611 409.859C337.42 430.589 350.638 444.262 365.063 450.712C370.399 453.096 375.903 454.495 381.566 454.9L381.557 454.891Z" fill="url(#paint19_linear_931_398)"/>
<path d="M477.369 229.826C514.857 271.066 544.032 335.764 470.174 409.788C433.153 446.893 400.279 463.277 372.46 458.499C349.819 454.61 330.798 436.748 315.898 405.407C299.025 369.903 273.654 305.505 293.354 273.178C300.857 260.868 314.286 254.304 333.264 253.662C363.029 252.659 385.81 240.508 405.915 229.791C426.487 218.818 443.738 209.615 461.174 217.419C466.52 219.813 471.883 223.799 477.36 229.826H477.369ZM372.61 457.637C400.129 462.361 432.739 446.057 469.549 409.173C542.923 335.641 513.941 271.383 476.717 230.424C471.372 224.546 466.132 220.649 460.901 218.308C443.738 210.635 426.671 219.733 406.338 230.574C386.154 241.335 363.275 253.539 333.299 254.55C314.63 255.175 301.447 261.598 294.111 273.644C274.623 305.628 299.897 369.692 316.699 405.037C328.517 429.903 342.924 446.207 359.665 453.686C363.839 455.551 368.163 456.871 372.619 457.637H372.61Z" fill="url(#paint20_linear_931_398)"/>
<path d="M491.6 244.133C517.103 277.049 528.04 309.209 524.121 339.714C520.238 369.947 501.516 398.183 468.466 423.647C426.733 455.798 391.033 468.054 362.368 460.056C338.635 453.439 319.975 433.009 306.924 399.344C292.411 361.914 271.47 294.62 294.243 264.423C303.137 252.623 317.958 247.582 338.274 249.421C369.625 252.263 394.599 243.024 416.632 234.876C437.732 227.072 455.653 220.437 472.314 227.89C478.901 230.838 485.286 235.976 491.591 244.124L491.6 244.133ZM362.615 459.212C390.997 467.122 426.425 454.926 467.929 422.951C500.785 397.637 519.401 369.595 523.25 339.6C527.133 309.332 516.257 277.392 490.904 244.669C469.038 216.443 446.045 224.942 416.949 235.712C394.828 243.895 369.757 253.169 338.204 250.309C318.205 248.497 303.657 253.424 294.948 264.959C272.43 294.805 293.301 361.773 307.743 399.027C319.086 428.275 334.655 447.447 354.108 456.141C356.864 457.373 359.691 458.393 362.606 459.203L362.615 459.212Z" fill="url(#paint21_linear_931_398)"/>
<path d="M505.302 260.322C529.511 297.049 538.141 331.056 530.937 361.404C523.972 390.774 501.947 416.326 465.481 437.338C419.001 464.112 380.553 471.811 351.193 460.223C326.721 450.571 308.862 427.659 298.039 392.129C286.194 353.229 270.14 283.807 295.696 255.949C306.035 244.678 322.256 241.282 343.91 245.857C376.582 252.756 403.608 246.719 427.455 241.396C448.643 236.662 466.872 232.589 482.847 239.733C490.869 243.323 498.328 249.737 505.302 260.322V260.322ZM351.51 459.405C380.606 470.888 418.799 463.206 465.032 436.572C501.278 415.684 523.17 390.325 530.074 361.201C537.216 331.1 528.63 297.322 504.563 260.806C484.027 229.65 459.14 235.211 427.64 242.25C403.714 247.599 376.59 253.653 343.725 246.711C322.397 242.206 306.457 245.514 296.348 256.539C271.083 284.079 287.092 353.15 298.884 391.874C309.196 425.749 325.937 448.046 348.675 458.217C349.608 458.64 350.559 459.035 351.51 459.414V459.405Z" fill="url(#paint22_linear_931_398)"/>
<path d="M518.283 278.325C540.642 318.483 546.701 353.854 536.292 383.445C526.323 411.786 501.04 434.408 461.148 450.677C409.869 471.583 368.726 474.284 338.908 458.701C314.26 445.829 297.572 420.602 289.32 383.735C280.391 343.841 269.603 273.107 297.695 247.705C309.548 236.988 327.179 235.395 350.11 242.98C383.829 254.128 412.731 251.568 438.225 249.306C458.982 247.467 477.078 245.857 492.384 252.712C502.167 257.085 510.806 264.916 518.274 278.325H518.283ZM460.822 449.858C500.477 433.686 525.583 411.249 535.464 383.154C545.785 353.81 539.744 318.685 517.508 278.756C498.627 244.837 472.006 247.195 438.305 250.186C412.722 252.456 383.723 255.026 349.837 243.816C327.231 236.346 309.883 237.868 298.285 248.356C270.528 273.459 281.289 343.832 290.175 383.541C298.365 420.145 314.903 445.169 339.314 457.918C340.731 458.657 342.167 459.352 343.637 460.012C372.839 473.07 412.229 469.665 460.813 449.858H460.822Z" fill="url(#paint23_linear_931_398)"/>
<path d="M530.356 298.043C550.329 341.14 553.649 377.347 540.228 405.662C527.336 432.859 498.821 452.304 455.468 463.479C399.31 477.953 355.631 475.164 325.637 455.199C301.367 439.045 286.318 411.786 280.902 374.197C275.081 333.784 269.867 262.584 300.267 239.733C313.634 229.685 332.55 230.019 356.477 240.719C356.785 240.86 357.102 241 357.41 241.141C391.64 256.451 422.031 257.613 448.854 258.633C468.536 259.381 485.946 260.05 500.494 266.552C512.524 271.937 522.589 281.317 530.347 298.043H530.356ZM356.125 241.519C332.515 230.961 313.899 230.591 300.804 240.428C270.757 263.006 275.988 333.846 281.782 374.065C287.154 411.399 302.081 438.446 326.131 454.46C355.904 474.284 399.346 477.029 455.248 462.626C498.337 451.521 526.658 432.225 539.435 405.283C552.742 377.215 549.422 341.254 529.564 298.413C512.664 261.942 484.493 260.868 448.837 259.504C421.925 258.475 391.446 257.313 357.067 241.942C356.759 241.801 356.442 241.66 356.133 241.519H356.125Z" fill="url(#paint24_linear_931_398)"/>
<path d="M541.329 319.38C558.439 364.818 558.915 401.35 542.747 427.967C526.983 453.923 495.228 469.946 448.388 475.595C387.299 482.951 341.251 474.161 311.547 449.471C288.281 430.14 275.283 401.227 272.897 363.542C270.334 323.102 270.898 252.245 303.446 232.052C318.584 222.655 339.014 225.224 364.165 239.689C398.993 259.724 430.995 264.836 459.219 269.359C476.973 272.201 492.965 274.761 506.456 280.789C521.559 287.546 533.526 298.65 541.329 319.38ZM363.724 240.455L363.945 240.076L363.724 240.455C338.882 226.165 318.751 223.587 303.912 232.8C271.761 252.756 271.232 323.243 273.777 363.489C276.146 400.919 289.047 429.621 312.111 448.794C341.63 473.325 387.448 482.053 448.282 474.724C494.849 469.119 526.376 453.228 541.998 427.518C558.017 401.148 557.515 364.87 540.501 319.697C525.9 280.929 496.408 276.204 459.078 270.239C435.9 266.526 410.186 262.417 382.429 250.001C376.291 247.256 370.047 244.106 363.724 240.464V240.455Z" fill="url(#paint25_linear_931_398)"/>
<path d="M550.998 342.187C564.841 389.305 562.437 425.67 543.856 450.272C525.231 474.926 490.261 487.218 439.916 486.822C373.904 486.294 325.787 470.984 296.903 441.315C275.266 419.089 264.663 388.979 265.403 351.822C266.195 311.831 272.677 242.135 307.224 224.687C324.167 216.126 345.936 221.08 371.897 239.408C406.743 264 439.898 273.266 469.144 281.449C483.674 285.514 497.069 289.253 508.772 294.488C528.454 303.296 543.389 316.318 550.989 342.187H550.998ZM371.386 240.129L371.641 239.768L371.386 240.129C345.707 222.004 324.246 217.076 307.62 225.47C273.487 242.707 267.067 312.042 266.274 351.83C265.544 388.742 276.058 418.631 297.528 440.69C326.245 470.184 374.151 485.406 439.916 485.934C489.971 486.33 524.703 474.152 543.143 449.735C561.548 425.371 563.908 389.27 550.144 342.425C538.167 301.651 507.601 293.107 468.897 282.284C450.95 277.269 431.541 271.84 411.155 262.725C398.236 256.953 384.93 249.694 371.368 240.12L371.386 240.129Z" fill="url(#paint26_linear_931_398)"/>
<path d="M380.042 240.129C414.501 269.297 448.511 282.874 478.523 294.849C518.468 310.802 550.029 323.393 559.179 366.296C569.447 414.417 564.163 450.149 543.504 472.515C522.017 495.78 483.842 504.006 430.053 496.967C308.474 481.068 249.173 426.48 258.543 339.09C262.734 300.005 275.213 232.254 311.653 217.683C323.022 213.134 335.888 214.067 350.128 220.437C359.515 224.634 369.501 231.207 380.042 240.12V240.129ZM430.168 496.105C483.657 503.1 521.568 494.961 542.852 471.926C563.318 449.779 568.514 414.302 558.316 366.481C549.263 324.035 517.904 311.514 478.197 295.667C448.123 283.657 414.043 270.054 379.47 240.798C353.236 218.59 330.525 211.093 311.979 218.51C275.961 232.914 263.589 300.304 259.414 339.195C252.818 400.726 280.532 445.89 340.309 472.621C364.887 483.611 394.907 491.495 430.168 496.105Z" fill="url(#paint27_linear_931_398)"/>
<path d="M388.532 241.898C422.198 275.597 456.736 293.609 487.206 309.499C527.758 330.643 559.787 347.352 565.687 391.54C572.151 439.96 564.049 474.653 541.619 494.662C517.226 516.422 475.907 520.205 418.825 505.898C292.579 474.258 235.048 411.865 252.449 325.469C258.34 296.213 266.169 271.779 275.724 252.844C287.313 229.879 301.121 215.844 316.787 211.128C327.54 207.89 339.137 209.052 351.51 214.586C363.187 219.813 375.56 228.928 388.523 241.915L388.532 241.898ZM419.045 505.036C475.828 519.264 516.874 515.551 541.038 494.002C563.239 474.205 571.235 439.766 564.824 391.654C558.985 347.915 527.133 331.312 486.809 310.282C456.278 294.365 421.678 276.319 387.915 242.522L388.223 242.215L387.915 242.522C361.461 216.047 337.623 205.761 317.051 211.955C279.22 223.359 260.885 288.074 253.321 325.636C239.548 394.03 273.091 447.289 350.841 482.062C370.708 490.949 393.463 498.63 419.045 505.036Z" fill="url(#paint28_linear_931_398)"/>
<path d="M397.294 244.766C429.727 282.909 464.433 305.434 495.061 325.302C535.799 351.742 567.977 372.622 570.345 417.681C572.873 465.74 562.024 499.017 538.115 516.589C510.754 536.703 466.396 535.621 406.285 513.377C276.507 465.353 221.504 395.367 247.235 310.986C255.769 283.006 265.869 259.883 277.256 242.25C291.02 220.93 306.308 208.401 322.679 205.013C332.771 202.928 343.25 204.318 354.073 209.157C367.96 215.369 382.411 227.257 397.294 244.757V244.766ZM406.593 512.559C466.414 534.697 510.481 535.814 537.595 515.885C561.249 498.498 571.975 465.467 569.465 417.725C567.122 373.115 535.112 352.341 494.576 326.041C463.904 306.138 429.137 283.578 396.616 245.338C370.364 214.463 345.54 201.186 322.855 205.884C306.722 209.219 291.637 221.616 277.996 242.734C266.653 260.296 256.588 283.349 248.072 311.25C224.815 387.483 267.992 451.935 373.156 498.965C383.679 503.672 394.828 508.204 406.584 512.559H406.593Z" fill="url(#paint29_linear_931_398)"/>
<path d="M406.232 248.778L405.871 249.034L406.232 248.778C436.984 291.215 471.487 318.289 501.921 342.169C542.403 373.933 574.37 399.019 572.961 444.5C571.499 491.574 558.008 523.1 532.857 538.207C502.44 556.483 455.221 550.121 392.468 519.272C260.374 454.355 208.69 377.083 243.008 295.808C254.166 269.394 266.503 247.828 279.695 231.709C295.599 212.272 312.314 201.432 329.371 199.479C338.697 198.414 348.102 200.006 357.56 204.239C373.693 211.454 389.976 226.333 406.232 248.761V248.778ZM532.399 537.46C557.277 522.519 570.627 491.23 572.071 444.473C573.472 399.441 541.655 374.47 501.366 342.856C470.888 318.94 436.341 291.831 405.51 249.289C379.928 213.988 354.337 197.525 329.468 200.358C312.648 202.277 296.128 213.011 280.373 232.272C267.234 248.33 254.941 269.816 243.819 296.16C209.712 376.934 261.246 453.809 392.855 518.489C397.822 520.927 402.683 523.214 407.447 525.344C462.654 550.033 504.66 554.125 532.399 537.451V537.46Z" fill="url(#paint30_linear_931_398)"/>
<path d="M415.276 253.943L414.898 254.172L415.276 253.943C443.897 300.472 477.774 332.068 507.671 359.952C547.414 397.021 578.808 426.304 573.392 471.723C567.968 517.24 551.932 546.725 525.733 559.351C492.181 575.523 442.294 563.425 377.462 523.399C244.4 441.253 196.837 357.101 239.9 280.05C253.638 255.466 268.194 235.695 283.147 221.3C301.138 203.975 319.253 195.009 336.98 194.63C345.363 194.454 353.641 196.197 361.805 199.848C380.324 208.128 398.236 226.227 415.285 253.943H415.276ZM525.345 558.559C551.253 546.074 567.122 516.826 572.512 471.618C577.875 426.647 546.621 397.496 507.064 360.594C477.131 332.675 443.21 301.035 414.519 254.401C397.558 226.834 379.787 208.858 361.435 200.649C353.386 197.05 345.231 195.326 336.989 195.501C319.491 195.871 301.579 204.758 283.746 221.924C268.846 236.267 254.351 255.967 240.657 280.472C197.859 357.048 245.324 440.787 377.92 522.642C394.766 533.043 410.582 541.542 425.368 548.159C467.242 566.892 500.758 570.394 525.345 558.55V558.559Z" fill="url(#paint31_linear_931_398)"/>
<path d="M424.32 260.296C450.351 310.652 483.19 346.71 512.154 378.526C550.672 420.831 581.098 454.24 571.481 499.079C562.164 542.545 543.698 569.716 516.592 579.835C479.8 593.57 427.57 575.321 361.338 525.599C228.751 426.049 186.094 335.535 237.971 263.833C254.263 241.317 270.986 223.579 287.682 211.093C307.717 196.109 327.196 189.21 345.566 190.583C352.743 191.12 359.744 192.915 366.56 195.959C387.73 205.427 407.086 226.966 424.311 260.296H424.32ZM516.293 579.017C543.099 569.004 561.381 542.053 570.627 498.894C580.147 454.495 549.853 421.236 511.511 379.116C482.503 347.255 449.621 311.153 423.545 260.692L423.933 260.49L423.545 260.692C400.922 216.927 374.671 193.627 345.513 191.454C327.355 190.099 308.078 196.945 288.22 211.797C271.593 224.23 254.932 241.907 238.693 264.352C187.142 335.597 229.737 425.688 361.875 524.895C388.276 544.719 412.423 559.518 434.245 569.276C466.951 583.9 494.409 587.191 516.301 579.017H516.293Z" fill="url(#paint32_linear_931_398)"/>
<path d="M433.259 267.828C456.234 321.677 487.593 362.081 515.253 397.725C552.037 445.116 581.089 482.546 567.113 526.259C554.019 567.244 533.227 591.863 505.32 599.447C465.216 610.34 411.023 585.536 344.227 525.722C257.186 447.782 211.737 379.371 209.14 322.39C207.854 294.084 217.347 268.822 237.364 247.318C256.183 227.107 275.046 211.595 293.451 201.23C315.493 188.814 336.293 184.195 355.279 187.512C360.906 188.498 366.375 190.169 371.668 192.545C395.858 203.368 416.527 228.594 433.259 267.819V267.828ZM505.091 598.603C532.69 591.106 553.27 566.681 566.277 525.995C580.111 482.713 551.183 445.45 514.558 398.262C486.862 362.574 455.468 322.126 432.448 268.171L432.853 267.995L432.448 268.171C412.176 220.657 386.163 193.812 355.13 188.392C311.257 180.728 267.226 216.539 238.015 247.925C218.166 269.253 208.752 294.295 210.029 322.354C212.609 379.089 257.961 447.289 344.826 525.071C378.81 555.506 409.499 576.843 436.693 589.012C462.759 600.67 485.629 603.9 505.1 598.603H505.091Z" fill="url(#paint33_linear_931_398)"/>
<path d="M442.003 276.539C461.465 333.503 490.895 378.06 516.856 417.373C551.377 469.638 578.632 510.922 560.183 552.954C543.442 591.089 520.432 612.945 491.794 617.925C448.344 625.474 392.653 593.755 326.263 523.637C240.428 432.982 198.669 357.726 202.147 299.961C203.803 272.447 215.92 249.139 238.165 230.697C259.503 213.002 280.497 199.954 300.575 191.92C324.598 182.312 346.684 180.227 366.225 185.726C369.871 186.747 373.42 188.04 376.881 189.589C404.63 201.995 426.504 231.19 442.003 276.548V276.539ZM491.644 617.063C519.974 612.144 542.764 590.455 559.373 552.611C577.637 511.01 550.487 469.911 516.117 417.866C490.121 378.509 460.664 333.898 441.158 276.829L441.572 276.688L441.158 276.829C423.818 226.095 398.527 195.721 365.979 186.571C320.768 173.856 271.822 203.913 238.72 231.374C216.678 249.658 204.666 272.755 203.019 300.014C199.558 357.523 241.238 432.56 326.897 523.038C366.683 565.062 402.586 593.253 434.271 607.419C455.274 616.816 474.437 620.046 491.635 617.063H491.644Z" fill="url(#paint34_linear_931_398)"/>
<path d="M450.422 286.394L449.999 286.508L450.422 286.394C465.93 346.023 492.974 394.505 516.83 437.276C548.55 494.134 573.604 539.052 550.584 578.823C530.339 613.816 505.188 632.707 475.854 634.968C429.067 638.576 372.451 599.641 307.585 519.228C224.471 416.212 187.23 334.787 196.899 277.234C201.364 250.653 216.008 229.421 240.437 214.12C264.311 199.171 287.427 188.814 309.161 183.341C335.148 176.804 358.467 177.517 378.475 185.462C379.629 185.92 380.773 186.403 381.909 186.914C413.938 201.238 436.975 234.683 450.431 286.402L450.422 286.394ZM475.793 634.097C504.827 631.854 529.731 613.112 549.827 578.383C572.591 539.043 547.643 494.328 516.064 437.707C492.181 394.892 465.102 346.358 449.568 286.622C435.716 233.363 411.683 199.602 378.14 186.28C331.802 167.882 277.934 191.674 240.895 214.868C216.686 230.028 202.174 251.057 197.753 277.384C188.128 334.682 225.317 415.868 308.263 518.683C352.171 573.104 392.239 608.475 427.984 624.463C444.9 632.03 460.857 635.259 475.784 634.106L475.793 634.097Z" fill="url(#paint35_linear_931_398)"/>
<path d="M392.045 187.116C426.134 205.031 448.467 242.126 458.418 297.374C469.54 359.16 493.74 411.267 515.095 457.241C543.478 518.348 565.898 566.619 538.291 603.53C514.646 635.135 487.435 650.859 457.396 650.252C407.395 649.249 350.524 602.87 288.361 512.4C209.545 397.699 177.578 310.916 193.35 254.48C200.501 228.902 217.629 209.826 244.259 197.798C270.713 185.849 295.96 178.44 319.306 175.792C344.694 172.906 367.221 175.792 386.383 184.362C388.303 185.224 390.196 186.139 392.045 187.116V187.116ZM457.414 649.372C487.144 649.97 514.118 634.37 537.586 603.002C564.886 566.513 542.562 518.454 514.302 457.61C492.93 411.592 468.704 359.433 457.555 297.533L457.986 297.454L457.555 297.533C447.657 242.566 425.483 205.673 391.64 187.899C344.536 163.139 285.683 180.059 244.629 198.607C218.245 210.53 201.284 229.412 194.204 254.726C178.511 310.898 210.434 397.426 289.091 511.908C335.448 579.368 378.801 622.245 418.508 640.001C431.902 645.993 444.883 649.126 457.423 649.372H457.414Z" fill="url(#paint36_linear_931_398)"/>
<path d="M406.849 191.049C440.4 213.548 460.25 253.363 465.85 309.411L465.41 309.455L465.85 309.411C472.182 372.798 493.088 428.169 511.528 477.02C536.045 541.965 555.41 593.262 523.214 626.715C496.25 654.731 466.995 667.067 436.261 663.371C383.283 657.009 326.923 603.073 268.749 503.074C195.798 377.664 169.776 286.437 191.413 231.92C201.17 207.336 220.764 190.521 249.657 181.925C278.735 173.276 306.114 169.123 331.036 169.571C353.078 169.967 372.742 174.015 389.765 181.626C395.788 184.318 401.486 187.459 406.831 191.049H406.849ZM436.376 662.491C466.828 666.151 495.827 653.904 522.589 626.099C554.397 593.051 535.12 541.982 510.71 477.328C492.252 428.424 471.328 373 464.979 309.499C459.404 253.732 439.678 214.12 406.364 191.78C400.834 188.075 395.092 184.925 389.174 182.286C344.333 162.233 289.858 170.909 249.93 182.778C221.31 191.287 201.901 207.934 192.249 232.254C181.814 258.545 182.659 294.084 194.768 337.893C207.431 383.709 232.582 439.133 269.524 502.643C316.646 583.636 362.509 634.326 406.303 653.912C416.439 658.444 426.469 661.312 436.376 662.5V662.491Z" fill="url(#paint37_linear_931_398)"/>
<path d="M422.682 197.604C454.807 224.546 471.61 266.552 472.623 322.434C473.794 386.806 490.948 445.019 506.086 496.378C526.209 564.666 542.104 618.603 505.408 647.991C475.15 672.223 443.861 680.916 412.405 673.842C356.864 661.347 301.887 599.887 248.997 491.169C183.408 356.327 163.92 261.616 191.069 209.659C203.407 186.06 225.502 171.604 256.737 166.694C288.484 161.705 317.976 161.133 344.386 164.987C361.69 167.512 377.409 171.929 391.411 178.194C403.036 183.394 413.489 189.87 422.691 197.587L422.682 197.604ZM412.59 672.997C443.773 680.01 474.815 671.369 504.853 647.313C541.091 618.295 525.266 564.604 505.241 496.633C490.085 445.221 472.913 386.947 471.742 322.451C470.729 266.825 454.033 225.048 422.119 198.273C412.458 190.169 401.891 183.781 390.751 178.801C347.662 159.532 296.154 161.415 256.869 167.583C225.924 172.44 204.041 186.738 191.844 210.081C178.749 235.131 176.653 270.864 185.609 316.292C194.979 363.797 216.563 422.512 249.78 490.799C295.934 585.677 343.62 644.454 391.834 666.02C398.738 669.108 405.669 671.44 412.59 672.997V672.997Z" fill="url(#paint38_linear_931_398)"/>
<path d="M439.212 207.037C469.03 238.053 482.283 281.572 478.611 336.371L478.17 336.345L478.611 336.371C474.269 401.06 487.25 461.649 498.698 515.093C513.924 586.17 525.944 642.307 484.863 667.04C451.267 687.269 417.918 692.029 385.74 681.197C328.244 661.84 275.591 593.042 229.279 476.712C172.435 333.934 159.965 236.742 192.223 187.855C207.167 165.207 231.816 153.267 265.473 152.37C299.897 151.454 331.432 154.833 359.198 162.409C370.267 165.427 380.624 169.096 390.249 173.399C409.64 182.074 426.046 193.328 439.22 207.037H439.212ZM386.013 680.37C417.936 691.114 451.038 686.38 484.405 666.292C524.949 641.884 512.982 586.02 497.835 515.287C486.369 461.781 473.38 401.13 477.73 336.318C481.385 281.774 468.211 238.484 438.578 207.653C390.469 157.605 309.478 152.088 265.482 153.258C232.124 154.147 207.722 165.946 192.945 188.348C177.393 211.92 172.329 247.485 177.913 294.048C183.742 342.741 201.302 404.087 230.09 476.396C273.46 585.334 322.335 652.478 375.507 676.261C378.994 677.819 382.499 679.191 386.022 680.379L386.013 680.37Z" fill="url(#paint39_linear_931_398)"/>
<path d="M455.987 219.47C482.706 253.97 492.023 298.272 483.683 351.127C473.529 415.429 481.922 477.847 489.319 532.911C499.156 606.143 506.932 663.996 461.641 683.485C424.602 699.429 389.157 699.93 356.31 684.84C297.651 657.977 248.363 582.211 209.818 459.651C162.942 310.599 157.896 211.982 194.829 166.518C212.46 144.811 239.724 135.599 275.856 139.119C312.912 142.735 346.367 150.443 375.287 162.048C378.492 163.333 381.619 164.662 384.692 166.034C415.065 179.62 439.018 197.569 455.987 219.47V219.47ZM461.289 682.676C505.963 663.45 498.231 605.897 488.438 533.025C481.032 477.891 472.64 415.411 482.811 350.986C491.116 298.378 481.851 254.313 455.292 220.006C409.737 161.177 323.26 144.627 275.768 139.998C239.944 136.505 212.944 145.612 195.507 167.072C177.692 188.999 169.688 224.054 171.704 271.268C173.809 320.621 186.913 383.92 210.654 459.387C249.12 581.7 298.25 657.282 356.671 684.04C357.014 684.198 357.357 684.356 357.701 684.506C390.029 698.962 424.866 698.346 461.289 682.676V682.676Z" fill="url(#paint40_linear_931_398)"/>
<path d="M392.433 164.134C428.477 183.359 455.415 207.16 472.508 234.859C495.484 272.095 500.609 316.415 487.725 366.569C471.513 429.718 474.912 493.386 477.915 549.558C481.913 624.269 485.066 683.274 435.83 696.974C395.198 708.28 357.648 703.978 324.246 684.198C265.447 649.381 220.561 567.235 190.849 440.048C154.99 286.526 157.693 187.512 198.898 145.735C219.337 125.014 249.287 118.767 287.894 127.187C318.769 133.918 346.975 142.964 372.038 154.173C379.083 157.323 385.881 160.649 392.424 164.134H392.433ZM435.601 696.12C484.159 682.614 481.015 623.917 477.043 549.602C474.04 493.369 470.632 429.63 486.88 366.349L487.303 366.454L486.88 366.349C499.702 316.433 494.612 272.351 471.768 235.316C430.106 167.785 338.574 139.11 287.727 128.032C249.428 119.682 219.76 125.85 199.541 146.342C158.565 187.882 155.932 286.631 191.721 439.837C221.38 566.786 266.116 648.739 324.704 683.432C329.345 686.178 334.065 688.624 338.864 690.771C368.392 703.978 400.86 705.782 435.601 696.12V696.12Z" fill="url(#paint41_linear_931_398)"/>
<path d="M410.336 168.788C447.137 193.557 473.362 221.889 488.28 253.002C507.055 292.157 507.847 335.755 490.649 382.582L490.235 382.433L490.649 382.582C468.166 443.805 466.229 508.072 464.53 564.78C462.266 640.213 460.47 699.79 407.588 707.163C322.52 719.015 212.715 678.461 172.664 417.927C148.658 261.801 159.367 163.439 204.49 125.551C227.914 105.885 260.586 102.929 301.596 116.761C318.372 122.418 334.303 128.622 349.335 135.344C371.773 145.375 392.186 156.567 410.354 168.797L410.336 168.788ZM407.465 706.283C459.607 699.015 461.386 639.764 463.64 564.754C465.349 507.984 467.277 443.638 489.812 382.283C506.932 335.676 506.148 292.315 487.479 253.38C460.25 196.584 399.548 158.863 348.129 135.872C330.948 128.19 314.806 122.146 301.297 117.588C260.594 103.862 228.214 106.765 205.045 126.219C160.177 163.887 149.574 261.986 173.527 417.787C200.351 592.259 258.455 667.815 319.367 695.065C349.168 708.395 379.646 710.155 407.465 706.283V706.283Z" fill="url(#paint42_linear_931_398)"/>
<path d="M316.84 108.076C360.598 128.111 398.227 150.979 428.679 176.056C465.736 206.57 490.684 239.372 502.828 273.538C517.129 313.775 513.589 355.992 492.322 399.019C463.42 457.487 455.838 521.674 449.145 578.313C440.242 653.657 433.206 713.164 377.057 713.718C286.74 714.615 174.98 659.763 155.465 393.396C143.973 236.557 162.854 139.884 211.588 106.061C237.804 87.8652 272.562 88.2611 314.947 107.214C315.581 107.495 316.215 107.786 316.849 108.076H316.84ZM377.039 712.838C402.49 712.583 419.318 700.203 430.009 673.877C439.81 649.742 443.729 616.588 448.264 578.198C454.966 521.498 462.566 457.232 491.529 398.623C512.691 355.816 516.213 313.828 501.991 273.829C472.438 190.68 373.077 134.789 316.47 108.868C273.531 89.185 238.412 88.5075 212.081 106.783C163.62 140.412 144.863 236.821 156.329 393.335C170.419 585.695 232.643 667.454 300.055 697.598C325.752 709.09 352.215 713.084 377.031 712.838H377.039Z" fill="url(#paint43_linear_931_398)"/>
<path d="M333.607 101.345C378.202 127.31 417.451 156.549 447.12 185.902C483.851 222.241 506.94 259.293 515.756 296.011C525.486 336.564 517.719 376.846 492.648 415.71C457.247 470.597 443.738 533.975 431.814 589.883C415.946 664.277 403.414 723.045 344.421 716.349C249.543 705.579 136.972 636.156 139.517 366.577C140.988 210.891 168.155 116.945 220.262 87.3549C245.307 73.136 275.988 74.051 311.732 90.0385C318.821 93.2061 326.113 96.9808 333.598 101.336L333.607 101.345ZM344.527 715.487C371.28 718.522 390.02 708.289 403.52 683.274C415.893 660.344 422.876 627.613 430.96 589.716C442.901 533.729 456.437 470.272 491.917 415.253C516.848 376.59 524.588 336.547 514.91 296.231C493.476 206.922 391.843 136.276 333.167 102.111C288.255 75.9692 250.423 71.2618 220.711 88.138C168.895 117.57 141.877 211.251 140.407 366.604C138.417 576.975 206.603 665.14 281.641 698.707C302.521 708.052 323.947 713.155 344.527 715.495V715.487Z" fill="url(#paint44_linear_931_398)"/>
<path d="M351.792 96.752C397.276 129.202 436.552 164.283 465.366 198.203C501.128 240.314 521.814 281.264 526.834 319.917C532.065 360.163 520.194 398.042 491.565 432.507C449.656 482.96 429.983 544.754 412.634 599.271C389.544 671.818 371.298 729.116 309.962 714.783C211.297 691.73 99.1319 607.586 125.119 337.638C139.817 184.934 175.315 94.7371 230.618 69.5724C254.536 58.6882 282.038 60.1576 312.727 73.8838C325.224 79.4711 338.257 87.0997 351.783 96.752H351.792ZM310.165 713.929C338.001 720.431 358.573 712.592 374.908 689.257C389.879 667.867 400.041 635.954 411.807 598.999C429.181 544.402 448.881 482.528 490.904 431.944C519.366 397.672 531.167 360.022 525.971 320.023C513.774 226.095 411.296 140.271 351.29 97.4647C304.811 64.3107 264.337 55.1951 230.997 70.3731C176.002 95.4058 140.68 185.356 126.009 337.726C104.002 566.32 181.197 661.338 265.174 698.892C280.127 705.579 295.309 710.454 310.174 713.92L310.165 713.929Z" fill="url(#paint45_linear_931_398)"/>
<path d="M371.271 94.4996C431.823 146.237 533.72 247.547 535.869 344.703C536.741 384.149 520.96 419.309 488.967 449.198C440.612 494.372 414.616 553.782 391.675 606.196C361.153 675.953 337.05 731.043 273.91 708.756C172.321 672.891 61.8639 574.045 112.491 306.754C140.521 158.766 184.332 73.3295 242.691 52.8282C265.473 44.8213 290.36 46.845 317.095 58.8027C334.4 66.5456 352.488 78.4505 371.263 94.4996H371.271ZM274.2 707.928C302.873 718.047 325.162 712.847 344.333 691.563C361.902 672.056 375.322 641.374 390.874 605.844C413.841 553.35 439.872 493.853 488.368 448.556C520.176 418.842 535.86 383.911 534.997 344.721C532.857 247.899 431.145 146.809 370.708 95.1595C323.18 54.544 280.206 40.5803 242.991 53.6465C184.949 74.0423 141.34 159.25 113.363 306.912C66.5312 554.151 157.755 656.913 251.991 699.059C259.397 702.376 266.829 705.315 274.209 707.92L274.2 707.928Z" fill="url(#paint46_linear_931_398)"/>
<path d="M391.913 94.7547C451.893 155.344 551.253 271.655 542.852 369.912C539.576 408.231 520.035 440.426 484.784 465.599C430.106 504.64 397.681 560.847 369.07 610.437C349.634 644.119 332.85 673.208 312.613 690.595C290.342 709.723 266.213 712.099 236.589 698.065C133.054 648.994 25.635 535.621 101.906 274.172C143.234 132.502 195.279 52.8106 256.588 37.2895C278.154 31.8254 300.769 34.3858 324.255 44.9005C346.094 54.6672 368.7 71.3058 391.904 94.7547H391.913ZM312.041 689.926C332.172 672.636 348.921 643.609 368.312 609.997C396.968 560.328 429.445 504.033 484.282 464.887C519.313 439.872 538.731 407.897 541.981 369.842C550.355 271.937 451.162 155.854 391.297 95.3794C343.356 46.9506 298.109 27.6987 256.817 38.1517C195.825 53.5937 143.991 133.082 102.76 274.418C26.6653 535.269 133.74 648.351 236.967 697.273C237.795 697.669 238.614 698.047 239.433 698.408C267.56 710.99 290.694 708.263 312.041 689.926V689.926Z" fill="url(#paint47_linear_931_398)"/>
<path d="M413.568 97.6671C471.892 166.87 566.885 297.533 547.845 395.129C540.624 432.137 517.455 461.191 478.981 481.499C418.2 513.571 379.294 565.739 344.967 611.757C321.648 643.019 301.517 670.014 278.753 684.831C253.726 701.127 228.17 700.388 198.326 682.508C93.8746 619.931 -9.07924 492.383 93.6104 240.103C148.086 106.281 208.25 33.286 272.439 23.1409C292.596 19.9557 313.071 23.0177 333.739 32.2653C360.096 44.0557 386.779 65.9033 413.559 97.6671H413.568ZM278.286 684.101C300.91 669.372 321.005 642.43 344.271 611.238C378.651 565.141 417.628 512.893 478.576 480.725C516.803 460.549 539.814 431.697 546.982 394.962C565.951 297.726 471.117 167.319 412.89 98.239C365.318 41.7944 318.108 16.8233 272.58 24.012C208.717 34.1042 148.782 106.915 94.4294 240.437C-8.02249 492.146 94.6319 619.359 198.783 681.752C203.151 684.365 207.422 686.617 211.614 688.492C235.761 699.297 257.222 697.81 278.277 684.101H278.286Z" fill="url(#paint48_linear_931_398)"/>
<path d="M436.041 103.386C491.591 180.719 580.385 324.704 550.963 420.066C539.973 455.674 513.246 481.455 471.522 496.695C404.938 521.006 359.577 568.273 319.561 609.98C292.376 638.312 268.899 662.782 243.722 674.695C216.052 687.797 189.299 683.749 159.525 661.981C55.2768 585.756 -41.7768 444.57 87.8511 204.89C155.272 80.2454 223.414 14.8965 290.404 10.6378C308.826 9.46757 327.099 12.9343 345.143 21.0116C376.212 34.905 406.628 62.4454 436.041 103.395V103.386ZM243.343 673.894C268.37 662.051 291.795 637.634 318.918 609.364C359.004 567.587 404.436 520.24 471.214 495.859C512.673 480.725 539.215 455.138 550.117 419.802C579.425 324.8 490.781 181.098 435.328 103.888C389.016 39.4364 340.282 8.35012 290.456 11.5177C223.793 15.7499 155.888 80.9582 88.6349 205.312C-40.7025 444.429 56.0782 585.246 160.036 661.277C167.592 666.803 174.936 671.167 182.166 674.396C203.134 683.776 223.001 683.529 243.343 673.903V673.894Z" fill="url(#paint49_linear_931_398)"/>
<path d="M459.14 112.027C510.806 196.804 591.621 352.745 552.337 444.535C537.701 478.745 507.425 501.094 462.363 510.966C390.354 526.734 338.644 568.273 293.019 604.92C262.03 629.812 235.259 651.308 207.801 660.001C177.631 669.557 149.909 662.051 120.549 636.385C17.7006 546.496 -71.9822 392.402 84.857 168.832C164.994 54.6055 240.957 -2.18217 310.649 0.0615297C326.853 0.580661 342.651 4.29377 358.044 11.1745C394.256 27.3731 428.116 61.1079 459.149 112.018L459.14 112.027ZM207.537 659.165C234.836 650.525 261.546 629.073 292.464 604.234C338.16 567.525 389.958 525.924 462.169 510.113C506.94 500.311 537.005 478.129 551.526 444.201C590.653 352.763 509.961 197.129 458.383 112.493C414.343 40.2106 364.623 2.68358 310.623 0.941414C241.247 -1.29349 165.531 55.371 85.5791 169.334C-70.8815 392.367 18.5548 546.065 121.13 635.725C131.53 644.814 141.719 651.607 151.881 656.156C170.163 664.33 188.357 665.236 207.537 659.165V659.165Z" fill="url(#paint50_linear_931_398)"/>
</g>
<defs>
<linearGradient id="paint0_linear_931_398" x1="279.32" y1="278.474" x2="417.364" y2="340.334" gradientUnits="userSpaceOnUse">
<stop stop-color="#662E8B"/>
<stop offset="1" stop-color="#ED2079"/>
</linearGradient>
<linearGradient id="paint1_linear_931_398" x1="278.547" y1="275.872" x2="421.878" y2="340.101" gradientUnits="userSpaceOnUse">
<stop stop-color="#662E8B"/>
<stop offset="1" stop-color="#ED2079"/>
</linearGradient>
<linearGradient id="paint2_linear_931_398" x1="278.199" y1="273.162" x2="426.567" y2="339.648" gradientUnits="userSpaceOnUse">
<stop stop-color="#662E8B"/>
<stop offset="1" stop-color="#ED2079"/>
</linearGradient>
<linearGradient id="paint3_linear_931_398" x1="278.171" y1="270.402" x2="431.345" y2="339.042" gradientUnits="userSpaceOnUse">
<stop stop-color="#662E8B"/>
<stop offset="1" stop-color="#ED2079"/>
</linearGradient>
<linearGradient id="paint4_linear_931_398" x1="278.766" y1="267.805" x2="436.11" y2="338.313" gradientUnits="userSpaceOnUse">
<stop stop-color="#662E8B"/>
<stop offset="1" stop-color="#ED2079"/>
</linearGradient>
<linearGradient id="paint5_linear_931_398" x1="280.131" y1="265.533" x2="440.761" y2="337.514" gradientUnits="userSpaceOnUse">
<stop stop-color="#662E8B"/>
<stop offset="1" stop-color="#ED2079"/>
</linearGradient>
<linearGradient id="paint6_linear_931_398" x1="282.307" y1="263.691" x2="445.219" y2="336.695" gradientUnits="userSpaceOnUse">
<stop stop-color="#662E8B"/>
<stop offset="1" stop-color="#ED2079"/>
</linearGradient>
<linearGradient id="paint7_linear_931_398" x1="285.306" y1="262.382" x2="449.408" y2="335.918" gradientUnits="userSpaceOnUse">
<stop stop-color="#662E8B"/>
<stop offset="1" stop-color="#ED2079"/>
</linearGradient>
<linearGradient id="paint8_linear_931_398" x1="289.143" y1="261.678" x2="453.261" y2="335.222" gradientUnits="userSpaceOnUse">
<stop stop-color="#662E8B"/>
<stop offset="1" stop-color="#ED2079"/>
</linearGradient>
<linearGradient id="paint9_linear_931_398" x1="293.735" y1="261.766" x2="456.68" y2="334.784" gradientUnits="userSpaceOnUse">
<stop stop-color="#662E8B"/>
<stop offset="1" stop-color="#ED2079"/>
</linearGradient>
<linearGradient id="paint10_linear_931_398" x1="299.014" y1="262.797" x2="459.604" y2="334.761" gradientUnits="userSpaceOnUse">
<stop stop-color="#662E8B"/>
<stop offset="1" stop-color="#ED2079"/>
</linearGradient>
<linearGradient id="paint11_linear_931_398" x1="304.851" y1="264.994" x2="461.946" y2="335.391" gradientUnits="userSpaceOnUse">
<stop stop-color="#662E8B"/>
<stop offset="1" stop-color="#ED2079"/>
</linearGradient>
<linearGradient id="paint12_linear_931_398" x1="311.069" y1="268.537" x2="463.664" y2="336.918" gradientUnits="userSpaceOnUse">
<stop stop-color="#662E8B"/>
<stop offset="1" stop-color="#ED2079"/>
</linearGradient>
<linearGradient id="paint13_linear_931_398" x1="317.73" y1="272.944" x2="465.07" y2="338.97" gradientUnits="userSpaceOnUse">
<stop stop-color="#662E8B"/>
<stop offset="1" stop-color="#ED2079"/>
</linearGradient>
<linearGradient id="paint14_linear_931_398" x1="318.479" y1="275.149" x2="466.429" y2="341.449" gradientUnits="userSpaceOnUse">
<stop stop-color="#662E8B"/>
<stop offset="1" stop-color="#ED2079"/>
</linearGradient>
<linearGradient id="paint15_linear_931_398" x1="313.916" y1="275.297" x2="468.126" y2="344.401" gradientUnits="userSpaceOnUse">
<stop stop-color="#662E8B"/>
<stop offset="1" stop-color="#ED2079"/>
</linearGradient>
<linearGradient id="paint16_linear_931_398" x1="309.211" y1="275.612" x2="470.774" y2="348.01" gradientUnits="userSpaceOnUse">
<stop stop-color="#662E8B"/>
<stop offset="1" stop-color="#ED2079"/>
</linearGradient>
<linearGradient id="paint17_linear_931_398" x1="304.34" y1="276.363" x2="475.287" y2="352.967" gradientUnits="userSpaceOnUse">
<stop stop-color="#662E8B"/>
<stop offset="1" stop-color="#ED2079"/>
</linearGradient>
<linearGradient id="paint18_linear_931_398" x1="299.344" y1="277.628" x2="482.071" y2="359.511" gradientUnits="userSpaceOnUse">
<stop stop-color="#662E8B"/>
<stop offset="1" stop-color="#ED2079"/>
</linearGradient>
<linearGradient id="paint19_linear_931_398" x1="294.281" y1="279.431" x2="490.178" y2="367.215" gradientUnits="userSpaceOnUse">
<stop stop-color="#662E8B"/>
<stop offset="1" stop-color="#ED2079"/>
</linearGradient>
<linearGradient id="paint20_linear_931_398" x1="289.187" y1="281.799" x2="499.056" y2="375.845" gradientUnits="userSpaceOnUse">
<stop stop-color="#662E8B"/>
<stop offset="1" stop-color="#ED2079"/>
</linearGradient>
<linearGradient id="paint21_linear_931_398" x1="284.09" y1="284.753" x2="508.254" y2="385.205" gradientUnits="userSpaceOnUse">
<stop stop-color="#662E8B"/>
<stop offset="1" stop-color="#ED2079"/>
</linearGradient>
<linearGradient id="paint22_linear_931_398" x1="279.014" y1="288.286" x2="517.569" y2="395.187" gradientUnits="userSpaceOnUse">
<stop stop-color="#662E8B"/>
<stop offset="1" stop-color="#ED2079"/>
</linearGradient>
<linearGradient id="paint23_linear_931_398" x1="273.948" y1="292.402" x2="526.709" y2="405.668" gradientUnits="userSpaceOnUse">
<stop stop-color="#662E8B"/>
<stop offset="1" stop-color="#ED2079"/>
</linearGradient>
<linearGradient id="paint24_linear_931_398" x1="268.852" y1="297.054" x2="535.442" y2="416.517" gradientUnits="userSpaceOnUse">
<stop stop-color="#662E8B"/>
<stop offset="1" stop-color="#ED2079"/>
</linearGradient>
<linearGradient id="paint25_linear_931_398" x1="263.661" y1="302.222" x2="543.581" y2="427.659" gradientUnits="userSpaceOnUse">
<stop stop-color="#662E8B"/>
<stop offset="1" stop-color="#ED2079"/>
</linearGradient>
<linearGradient id="paint26_linear_931_398" x1="258.243" y1="307.81" x2="550.971" y2="438.986" gradientUnits="userSpaceOnUse">
<stop stop-color="#662E8B"/>
<stop offset="1" stop-color="#ED2079"/>
</linearGradient>
<linearGradient id="paint27_linear_931_398" x1="255.452" y1="306.869" x2="560.513" y2="443.573" gradientUnits="userSpaceOnUse">
<stop stop-color="#662E8B"/>
<stop offset="1" stop-color="#ED2079"/>
</linearGradient>
<linearGradient id="paint28_linear_931_398" x1="252.383" y1="304.609" x2="569.642" y2="446.779" gradientUnits="userSpaceOnUse">
<stop stop-color="#662E8B"/>
<stop offset="1" stop-color="#ED2079"/>
</linearGradient>
<linearGradient id="paint29_linear_931_398" x1="247.782" y1="302.734" x2="577.407" y2="450.445" gradientUnits="userSpaceOnUse">
<stop stop-color="#662E8B"/>
<stop offset="1" stop-color="#ED2079"/>
</linearGradient>
<linearGradient id="paint30_linear_931_398" x1="240.33" y1="301.685" x2="583.342" y2="455.395" gradientUnits="userSpaceOnUse">
<stop stop-color="#662E8B"/>
<stop offset="1" stop-color="#ED2079"/>
</linearGradient>
<linearGradient id="paint31_linear_931_398" x1="229.854" y1="301.25" x2="587.473" y2="461.506" gradientUnits="userSpaceOnUse">
<stop stop-color="#662E8B"/>
<stop offset="1" stop-color="#ED2079"/>
</linearGradient>
<linearGradient id="paint32_linear_931_398" x1="218.24" y1="301.608" x2="590.066" y2="468.229" gradientUnits="userSpaceOnUse">
<stop stop-color="#662E8B"/>
<stop offset="1" stop-color="#ED2079"/>
</linearGradient>
<linearGradient id="paint33_linear_931_398" x1="206.016" y1="302.618" x2="591.389" y2="475.31" gradientUnits="userSpaceOnUse">
<stop stop-color="#662E8B"/>
<stop offset="1" stop-color="#ED2079"/>
</linearGradient>
<linearGradient id="paint34_linear_931_398" x1="193.429" y1="304.072" x2="591.779" y2="482.58" gradientUnits="userSpaceOnUse">
<stop stop-color="#662E8B"/>
<stop offset="1" stop-color="#ED2079"/>
</linearGradient>
<linearGradient id="paint35_linear_931_398" x1="180.794" y1="305.891" x2="590.98" y2="489.703" gradientUnits="userSpaceOnUse">
<stop stop-color="#662E8B"/>
<stop offset="1" stop-color="#ED2079"/>
</linearGradient>
<linearGradient id="paint36_linear_931_398" x1="168.355" y1="307.942" x2="588.19" y2="496.078" gradientUnits="userSpaceOnUse">
<stop stop-color="#662E8B"/>
<stop offset="1" stop-color="#ED2079"/>
</linearGradient>
<linearGradient id="paint37_linear_931_398" x1="156.342" y1="310.117" x2="583.289" y2="501.439" gradientUnits="userSpaceOnUse">
<stop stop-color="#662E8B"/>
<stop offset="1" stop-color="#ED2079"/>
</linearGradient>
<linearGradient id="paint38_linear_931_398" x1="144.979" y1="312.264" x2="576.216" y2="505.509" gradientUnits="userSpaceOnUse">
<stop stop-color="#662E8B"/>
<stop offset="1" stop-color="#ED2079"/>
</linearGradient>
<linearGradient id="paint39_linear_931_398" x1="134.445" y1="314.174" x2="566.968" y2="507.996" gradientUnits="userSpaceOnUse">
<stop stop-color="#662E8B"/>
<stop offset="1" stop-color="#ED2079"/>
</linearGradient>
<linearGradient id="paint40_linear_931_398" x1="124.939" y1="315.6" x2="555.63" y2="508.6" gradientUnits="userSpaceOnUse">
<stop stop-color="#662E8B"/>
<stop offset="1" stop-color="#ED2079"/>
</linearGradient>
<linearGradient id="paint41_linear_931_398" x1="116.677" y1="316.146" x2="542.37" y2="506.906" gradientUnits="userSpaceOnUse">
<stop stop-color="#662E8B"/>
<stop offset="1" stop-color="#ED2079"/>
</linearGradient>
<linearGradient id="paint42_linear_931_398" x1="109.848" y1="315.279" x2="527.466" y2="502.421" gradientUnits="userSpaceOnUse">
<stop stop-color="#662E8B"/>
<stop offset="1" stop-color="#ED2079"/>
</linearGradient>
<linearGradient id="paint43_linear_931_398" x1="104.686" y1="312.179" x2="511.416" y2="494.442" gradientUnits="userSpaceOnUse">
<stop stop-color="#662E8B"/>
<stop offset="1" stop-color="#ED2079"/>
</linearGradient>
<linearGradient id="paint44_linear_931_398" x1="100.748" y1="307.207" x2="494.293" y2="483.561" gradientUnits="userSpaceOnUse">
<stop stop-color="#662E8B"/>
<stop offset="1" stop-color="#ED2079"/>
</linearGradient>
<linearGradient id="paint45_linear_931_398" x1="97.2116" y1="301.104" x2="480.632" y2="472.921" gradientUnits="userSpaceOnUse">
<stop stop-color="#662E8B"/>
<stop offset="1" stop-color="#ED2079"/>
</linearGradient>
<linearGradient id="paint46_linear_931_398" x1="93.2232" y1="293.834" x2="492.44" y2="472.73" gradientUnits="userSpaceOnUse">
<stop stop-color="#662E8B"/>
<stop offset="1" stop-color="#ED2079"/>
</linearGradient>
<linearGradient id="paint47_linear_931_398" x1="87.4485" y1="285.167" x2="504.721" y2="472.154" gradientUnits="userSpaceOnUse">
<stop stop-color="#662E8B"/>
<stop offset="1" stop-color="#ED2079"/>
</linearGradient>
<linearGradient id="paint48_linear_931_398" x1="77.9091" y1="273.727" x2="517.415" y2="470.677" gradientUnits="userSpaceOnUse">
<stop stop-color="#662E8B"/>
<stop offset="1" stop-color="#ED2079"/>
</linearGradient>
<linearGradient id="paint49_linear_931_398" x1="62.0286" y1="257.985" x2="530.493" y2="467.912" gradientUnits="userSpaceOnUse">
<stop stop-color="#662E8B"/>
<stop offset="1" stop-color="#ED2079"/>
</linearGradient>
<linearGradient id="paint50_linear_931_398" x1="41.7826" y1="238.786" x2="543.801" y2="463.749" gradientUnits="userSpaceOnUse">
<stop stop-color="#662E8B"/>
<stop offset="1" stop-color="#ED2079"/>
</linearGradient>
<clipPath id="clip0_931_398">
<rect width="574" height="717" fill="white"/>
</clipPath>
</defs>
</svg>
